<svg xmlns="http://www.w3.org/2000/svg" width="24" height="24" viewBox="0 0 6.35 6.35"><path fill-rule="evenodd" d="M 6.9980469,0.99804688 C 4.8007524,0.99804688 2.9960938,2.8026961 2.9960938,5 c 0,0.9407413 0.3458969,1.7966335 0.8964843,2.4824219 -1.702404,0.7990028 -2.89648435,2.5182281 -2.89648435,4.5156251 0.0289264,1.304086 1.97107375,1.304086 2.00000005,0 C 2.9960938,10.318727 4.3226482,9 6.0019531,9 h 2 c 1.679305,0 2.9960939,1.318727 2.9960939,2.998047 0,1.334635 2.001953,1.334635 2.001953,0 C 13,10.318727 14.316789,9 15.996094,9 h 2 c 1.679304,0 3.005859,1.318727 3.005859,2.998047 0,1.333644 2,1.333644 2,0 0,-1.997515 -1.193918,-3.7166854 -2.896484,-4.5156251 C 20.656056,6.7966335 21.001953,5.9407413 21.001953,5 21.001953,2.8026961 19.197294,0.99804688 17,0.99804688 14.802706,0.99804688 13,2.8026961 13,5 13,5.9397605 13.343023,6.7950147 13.892578,7.4804688 13.139148,7.8337172 12.492608,8.3701845 12,9.03125 11.507304,8.3697253 10.859279,7.8338952 10.105469,7.4804688 10.655024,6.7950147 10.998047,5.9397605 10.998047,5 c 0,-2.1973039 -1.8027057,-4.00195312 -4.0000001,-4.00195312 z m 0,2.00000002 c 1.1164142,0 2,0.8855185 2,2.0019531 0,1.1163968 -0.8835858,2 -2,2 -1.1164143,0 -2,-0.8836032 -2,-2 0,-1.1164346 0.8835857,-2.0019531 2,-2.0019531 z m 10.0019531,0 c 1.116414,0 2.001953,0.8855185 2.001953,2.0019531 0,1.1163968 -0.885539,2 -2.001953,2 C 15.883586,7 15,6.1163968 15,5 15,3.8835654 15.883586,2.9980469 17,2.9980469 Z M 6.9980469,11 c -2.1972945,0 -4.0019531,1.804649 -4.0019531,4.001953 0,0.941295 0.3453311,1.798407 0.8964843,2.484375 C 2.1902632,18.285355 0.99609375,20.002668 0.99609375,22 c 0.0289264,1.304086 1.97107375,1.304086 2.00000005,0 0,-1.67932 1.3265544,-2.998047 3.0058593,-2.998047 h 2 c 1.679305,0 2.9960939,1.318727 2.9960939,2.998047 0,1.334635 2.001953,1.334635 2.001953,0 0,-1.67932 1.316789,-2.998047 2.996094,-2.998047 h 2 c 1.679304,0 3.005859,1.318727 3.005859,2.998047 0,1.333644 2,1.333644 2,0 0,-1.997451 -1.194006,-3.714709 -2.896484,-4.513672 0.551153,-0.685968 0.896484,-1.54308 0.896484,-2.484375 C 21.001953,12.804649 19.197294,11 17,11 c -2.197294,0 -4,1.804649 -4,4.001953 0,0.940314 0.342458,1.796787 0.892578,2.482422 C 13.139216,17.837619 12.492573,18.372191 12,19.033203 11.507339,18.371732 10.85921,17.837797 10.105469,17.484375 10.655589,16.79874 10.998047,15.942267 10.998047,15.001953 10.998047,12.804649 9.1953413,11 6.9980469,11 Z m 0,2.001953 c 1.1164142,0 2,0.883603 2,2 0,1.116435 -0.8835858,2 -2,2 -1.1164143,0 -2,-0.883565 -2,-2 0,-1.116397 0.8835857,-2 2,-2 z m 10.0019531,0 c 1.116414,0 2.001953,0.883603 2.001953,2 0,1.116435 -0.885539,2 -2.001953,2 -1.116414,0 -2,-0.883565 -2,-2 0,-1.116397 0.883586,-2 2,-2 z" color="#000" font-family="sans-serif" font-weight="400" overflow="visible" paint-order="stroke fill markers" transform="scale(.26458)" style="line-height:normal;font-variant-ligatures:normal;font-variant-position:normal;font-variant-caps:normal;font-variant-numeric:normal;font-variant-alternates:normal;font-feature-settings:normal;text-indent:0;text-align:start;text-decoration-line:none;text-decoration-style:solid;text-decoration-color:#000;text-transform:none;text-orientation:mixed;shape-padding:0;isolation:auto;mix-blend-mode:normal"/></svg>