<svg xmlns="http://www.w3.org/2000/svg" width="24" height="24" data-name="Layer 1" viewBox="0 0 128 128"><path d="M.82 118.63a23.58 23.58 0 0 0 11 4.36l.25 0a2 2 0 0 0 2-2.11 73.51 73.51 0 0 0-1-9l.77-4c.28 0 .57 0 .86 0h0c.35 0 .69 0 1 0l.78 4a73.38 73.38 0 0 0-1 9 2 2 0 0 0 2 2.11l.25 0a23.58 23.58 0 0 0 11-4.36 2 2 0 0 0 .82-1.73l-.29-5a2 2 0 0 0-1.43-1.8l-8.08-2.37-.18-.91q4.59-2.61 4.9-11.08A2.61 2.61 0 0 0 25.82 93l0-.23c-.25-3.35-.92-12.23-11.93-11.68-5.26.27-7.65 1.19-8.26 3.17a2.81 2.81 0 0 0-.09.38c-1.16.86-1.79 2.4-1.89 4.57-.15 1.6-.15 4.22 1.25 5.56C4.91 101 6.63 105.1 10 106.9l-.16.83L1.73 110.1A2 2 0 0 0 .3 111.9l-.29 5A2 2 0 0 0 .82 118.63zM7.59 90.78a9.71 9.71 0 0 1 0-1.25s0-.08 0-.12A4.57 4.57 0 0 1 7.86 88 2 2 0 0 0 10 85.57a21.51 21.51 0 0 1 4.06-.5c5.13-.27 6.75 2 7.39 5.12l-.3-.28c-1.49-1.38-2.66-2.47-4.12-1.42a2.05 2.05 0 0 0-.79 1.16 4.84 4.84 0 0 1-1.84-1.24 3.55 3.55 0 0 0-2.85-1.6 3.19 3.19 0 0 0-2.43 1.92A10.37 10.37 0 0 1 7.59 90.78zm1.3 4.1a6.74 6.74 0 0 0 .88-.66A13.32 13.32 0 0 0 12 91.66c2 1.79 5.24 2.92 7.13 1.83.48.44.94.84 1.39 1.2v0c0 9.21-3.9 9.26-5.79 9.26h0C12.84 104 9 104 8.89 94.88zM44.19 123a2 2 0 0 0 2-2.11 73.42 73.42 0 0 0-1-9l.77-4c.28 0 .57 0 .86 0h0c.35 0 .69 0 1 0l.78 4a73.38 73.38 0 0 0-1 9 2 2 0 0 0 2 2.11l.25 0a23.58 23.58 0 0 0 11-4.36 2 2 0 0 0 .82-1.73l-.29-5A2 2 0 0 0 60 110.1l-8.08-2.37-.18-.91q4.59-2.61 4.9-11.08A2.61 2.61 0 0 0 58 93l0-.23C57.68 89.4 57 80.53 46 81.08c-5.26.27-7.65 1.19-8.26 3.17a2.81 2.81 0 0 0-.09.38c-1.16.86-1.79 2.4-1.89 4.57-.15 1.6-.15 4.22 1.25 5.56 0 6.28 1.74 10.34 5.08 12.14l-.16.83-8.08 2.37a2 2 0 0 0-1.43 1.8l-.29 5a2 2 0 0 0 .82 1.73 23.58 23.58 0 0 0 11 4.36zM39.73 90.78a9.71 9.71 0 0 1 0-1.25s0-.08 0-.12A4.57 4.57 0 0 1 40 88a2 2 0 0 0 2.15-2.42 21.51 21.51 0 0 1 4.06-.5c5.14-.27 6.75 2 7.39 5.12l-.3-.28c-1.49-1.38-2.66-2.47-4.12-1.42a2.05 2.05 0 0 0-.79 1.16 4.84 4.84 0 0 1-1.84-1.24 3.54 3.54 0 0 0-2.85-1.6 3.19 3.19 0 0 0-2.43 1.92A10.37 10.37 0 0 1 39.73 90.78zm1.3 4.1a6.75 6.75 0 0 0 .88-.66 13.32 13.32 0 0 0 2.23-2.56c2 1.79 5.24 2.92 7.13 1.83.48.44.94.84 1.39 1.2v0c0 9.26-4 9.29-5.82 9.26S41.11 104 41 94.88zM29.81 83.06c6.22 0 9.51-4.11 9.79-12.25a2.62 2.62 0 0 0 1.32-2.75l0-.23C40.65 64.48 40 55.59 29 56.15c-5.26.27-7.65 1.19-8.26 3.17a2.83 2.83 0 0 0-.09.38c-1.16.86-1.79 2.4-1.89 4.57-.15 1.6-.15 4.22 1.25 5.56C20 78.61 23.33 83.06 29.81 83.06zm0-4c-1.87 0-5.73 0-5.82-9.1a6.74 6.74 0 0 0 .88-.66 13.29 13.29 0 0 0 2.23-2.56c2 1.79 5.25 2.92 7.13 1.83.48.44.94.84 1.39 1.2v0C35.6 79.06 31.69 79.06 29.81 79.06zM22.72 64.61s0-.08 0-.12A4.57 4.57 0 0 1 23 63.06a2 2 0 0 0 2.14-2.41 21.38 21.38 0 0 1 4.08-.51c5.13-.28 6.75 2 7.39 5.12l-.3-.28c-1.49-1.38-2.66-2.48-4.12-1.42a2.05 2.05 0 0 0-.79 1.16 4.85 4.85 0 0 1-1.84-1.25 3.57 3.57 0 0 0-2.85-1.6 3.19 3.19 0 0 0-2.42 1.92 10.38 10.38 0 0 1-1.54 2.05A9.72 9.72 0 0 1 22.72 64.61zM45.84 57c6.22 0 9.51-4.11 9.79-12.25A2.62 2.62 0 0 0 57 42l0-.23C56.68 38.41 56 29.54 45 30.09c-5.26.27-7.65 1.19-8.26 3.17a2.82 2.82 0 0 0-.09.38c-1.16.86-1.79 2.4-1.89 4.57-.15 1.6-.15 4.22 1.25 5.56C36.06 52.54 39.36 57 45.84 57zm0-4C44 53 40.11 53 40 43.89a6.75 6.75 0 0 0 .88-.66 13.29 13.29 0 0 0 2.23-2.56c2 1.79 5.25 2.92 7.13 1.83.48.44.94.84 1.39 1.2v0C51.63 53 47.72 53 45.84 53zM38.76 38.55s0-.08 0-.12A4.57 4.57 0 0 1 39 37a2 2 0 0 0 2.14-2.41 21.38 21.38 0 0 1 4.08-.51c5.13-.28 6.75 2 7.39 5.12l-.3-.28c-1.49-1.38-2.66-2.47-4.12-1.42a2.05 2.05 0 0 0-.79 1.16 4.85 4.85 0 0 1-1.84-1.25 3.56 3.56 0 0 0-2.85-1.6 3.19 3.19 0 0 0-2.42 1.92 10.38 10.38 0 0 1-1.54 2.05A9.72 9.72 0 0 1 38.76 38.55zM69.82 33.26a2.89 2.89 0 0 0-.09.38c-1.16.86-1.79 2.4-1.89 4.57-.15 1.6-.15 4.22 1.25 5.56 0 8.77 3.34 13.22 9.82 13.22 6.22 0 9.51-4.11 9.79-12.25A2.62 2.62 0 0 0 90 42l0-.23c-.25-3.35-.9-12.23-11.93-11.68C72.81 30.36 70.42 31.28 69.82 33.26zM78.92 53c-1.87 0-5.73 0-5.82-9.1a6.75 6.75 0 0 0 .88-.66 13.27 13.27 0 0 0 2.23-2.56c2 1.79 5.24 2.92 7.13 1.83.48.44.94.84 1.39 1.2v0C84.71 53 80.8 53 78.92 53zM71.83 38.55s0-.08 0-.12A4.56 4.56 0 0 1 72.07 37a2 2 0 0 0 2.15-2.42 21.51 21.51 0 0 1 4.06-.5c5.14-.27 6.75 2 7.39 5.12l-.3-.28c-1.49-1.38-2.66-2.48-4.12-1.42a2.05 2.05 0 0 0-.79 1.16 4.84 4.84 0 0 1-1.84-1.25 3.56 3.56 0 0 0-2.85-1.6 3.19 3.19 0 0 0-2.42 1.92 10.39 10.39 0 0 1-1.54 2.05A9.63 9.63 0 0 1 71.83 38.55zM61.88 31.93c6.22 0 9.51-4.11 9.79-12.25A2.62 2.62 0 0 0 73 16.93l0-.23C72.72 13.35 72 4.47 61 5c-5.26.27-7.65 1.19-8.26 3.17a2.82 2.82 0 0 0-.09.38c-1.16.86-1.79 2.4-1.89 4.57-.15 1.6-.15 4.22 1.25 5.56C52.1 27.48 55.4 31.93 61.88 31.93zm0-4c-1.87 0-5.73 0-5.81-9.1a6.74 6.74 0 0 0 .88-.66 13.29 13.29 0 0 0 2.23-2.56c2 1.79 5.24 2.92 7.13 1.83.48.44.94.84 1.39 1.2v0C67.67 27.93 63.76 27.93 61.88 27.93zM54.79 13.49s0-.08 0-.12A4.55 4.55 0 0 1 55 11.94a2 2 0 0 0 2.15-2.42A21.47 21.47 0 0 1 61.24 9c5.13-.27 6.75 2 7.38 5.12l-.3-.28c-1.49-1.38-2.67-2.47-4.12-1.42a2.05 2.05 0 0 0-.79 1.16 4.84 4.84 0 0 1-1.84-1.25 3.55 3.55 0 0 0-2.85-1.6 3.19 3.19 0 0 0-2.42 1.92 10.38 10.38 0 0 1-1.54 2.05A9.72 9.72 0 0 1 54.79 13.49zM62.88 83.06c6.22 0 9.51-4.11 9.79-12.25A2.62 2.62 0 0 0 74 68.06l0-.23C73.72 64.47 73 55.59 62 56.15c-5.26.27-7.65 1.19-8.26 3.17a2.83 2.83 0 0 0-.09.38c-1.16.86-1.79 2.4-1.89 4.57-.15 1.6-.15 4.22 1.25 5.56C53.1 78.61 56.4 83.06 62.88 83.06zm0-4c-1.87 0-5.73 0-5.82-9.1a6.75 6.75 0 0 0 .88-.66 13.32 13.32 0 0 0 2.23-2.56c2 1.79 5.25 2.92 7.13 1.83.48.44.94.84 1.39 1.2v0C68.67 79.06 64.76 79.06 62.88 79.06zM55.8 64.61s0-.08 0-.12A4.57 4.57 0 0 1 56 63.06a2 2 0 0 0 2.15-2.42 21.51 21.51 0 0 1 4.06-.5c5.13-.27 6.75 2 7.39 5.12l-.3-.28c-1.49-1.38-2.67-2.48-4.12-1.42a2.05 2.05 0 0 0-.79 1.16 4.84 4.84 0 0 1-1.84-1.25 3.56 3.56 0 0 0-2.85-1.6A3.19 3.19 0 0 0 57.3 63.8a10.37 10.37 0 0 1-1.54 2.05A9.72 9.72 0 0 1 55.8 64.61zM86.86 59.32a2.74 2.74 0 0 0-.09.38c-1.16.86-1.79 2.4-1.89 4.57-.15 1.6-.15 4.22 1.25 5.56 0 8.77 3.34 13.22 9.82 13.22 6.22 0 9.51-4.11 9.79-12.25a2.62 2.62 0 0 0 1.32-2.75l0-.23c-.25-3.35-.9-12.23-11.93-11.68C89.85 56.42 87.46 57.34 86.86 59.32zM96 79.06c-1.87 0-5.73 0-5.82-9.1a6.75 6.75 0 0 0 .88-.66 13.27 13.27 0 0 0 2.23-2.56c2 1.79 5.25 2.92 7.13 1.83.48.44.94.84 1.39 1.2v0C101.74 79.06 97.83 79.06 96 79.06zM88.87 64.61s0-.08 0-.12a4.6 4.6 0 0 1 .23-1.43 2 2 0 0 0 2.15-2.42 21.51 21.51 0 0 1 4.06-.5c5.13-.27 6.75 2 7.39 5.12l-.3-.28c-1.49-1.38-2.67-2.48-4.12-1.42a2.05 2.05 0 0 0-.79 1.16 4.84 4.84 0 0 1-1.84-1.25 3.57 3.57 0 0 0-2.85-1.6 3.19 3.19 0 0 0-2.43 1.92 10.37 10.37 0 0 1-1.54 2.05A9.8 9.8 0 0 1 88.87 64.61zM94.86 116.89l-.29-5a2 2 0 0 0-1.43-1.8l-8.08-2.37-.18-.91q4.59-2.61 4.9-11.08A2.61 2.61 0 0 0 91.09 93l0-.23c-.25-3.35-.94-12.23-11.93-11.68-5.26.27-7.65 1.19-8.26 3.17a2.89 2.89 0 0 0-.09.38c-1.16.86-1.79 2.4-1.89 4.57-.15 1.6-.15 4.22 1.25 5.56 0 6.29 1.74 10.34 5.08 12.14l-.16.83L67 110.1a2 2 0 0 0-1.43 1.8l-.29 5a2 2 0 0 0 .82 1.73 23.58 23.58 0 0 0 11 4.36l.25 0a2 2 0 0 0 2-2.11 73.31 73.31 0 0 0-1-9l.77-4c.28 0 .57 0 .86 0h0c.35 0 .69 0 1 0l.78 4a73.32 73.32 0 0 0-1 9 2 2 0 0 0 2 2.11l.25 0a23.58 23.58 0 0 0 11-4.36A2 2 0 0 0 94.86 116.89zm-22-26.11a9.64 9.64 0 0 1 0-1.25s0-.08 0-.12A4.59 4.59 0 0 1 73.14 88a2 2 0 0 0 2.14-2.41 21.39 21.39 0 0 1 4.08-.51c5.12-.27 6.75 2 7.38 5.12l-.3-.28c-1.49-1.38-2.67-2.48-4.12-1.42a2.05 2.05 0 0 0-.79 1.16 4.84 4.84 0 0 1-1.84-1.25 3.55 3.55 0 0 0-2.85-1.6 3.19 3.19 0 0 0-2.42 1.92A10.39 10.39 0 0 1 72.87 90.78zM80 104c-1.86 0-5.76 0-5.85-9.1a6.75 6.75 0 0 0 .88-.66 13.29 13.29 0 0 0 2.23-2.56c2 1.79 5.25 2.92 7.13 1.83.48.44.94.84 1.39 1.2v0C85.78 103.93 81.91 104 80 104zM104 84.25a2.74 2.74 0 0 0-.09.38c-1.16.86-1.79 2.4-1.89 4.57-.15 1.6-.15 4.22 1.25 5.56 0 6.28 1.74 10.34 5.08 12.14l-.16.83-8.08 2.37a2 2 0 0 0-1.43 1.8l-.29 5a2 2 0 0 0 .82 1.73 23.58 23.58 0 0 0 11 4.36l.25 0a2 2 0 0 0 2-2.11 73.64 73.64 0 0 0-1-9l.77-4c.28 0 .57 0 .86 0h0c.35 0 .69 0 1 0l.77 4a73.31 73.31 0 0 0-1 9 2 2 0 0 0 2 2.11l.25 0a23.58 23.58 0 0 0 11-4.36 2 2 0 0 0 .82-1.73l-.29-5a2 2 0 0 0-1.43-1.8l-8.08-2.37-.18-.91q4.59-2.61 4.9-11.08A2.62 2.62 0 0 0 124.24 93l0-.23c-.25-3.35-.92-12.24-11.93-11.67C107 81.35 104.63 82.27 104 84.25zm9.1 19.73c-1.87 0-5.73 0-5.81-9.1a6.74 6.74 0 0 0 .88-.66 13.29 13.29 0 0 0 2.23-2.56c2 1.79 5.24 2.92 7.13 1.83.48.44.94.84 1.39 1.2v0C118.92 104 115 104 113.13 104zM106 89.54s0-.08 0-.12a4.59 4.59 0 0 1 .23-1.43 2 2 0 0 0 2-1 2 2 0 0 0 .19-1.38 21.51 21.51 0 0 1 4.06-.5c5.13-.28 6.75 2 7.39 5.12l-.3-.28c-1.49-1.38-2.67-2.48-4.12-1.42a2.06 2.06 0 0 0-.79 1.16 4.84 4.84 0 0 1-1.84-1.25 3.55 3.55 0 0 0-2.85-1.6 3.19 3.19 0 0 0-2.42 1.92A10.39 10.39 0 0 1 106 90.78 9.64 9.64 0 0 1 106 89.54z"/></svg>